<svg width="39" height="41" viewBox="0 0 39 41" fill="none" xmlns="http://www.w3.org/2000/svg">
<path d="M13.4091 0.163818C13.424 0.164076 13.7588 0.180258 14.0839 0.202881C14.2484 0.214336 14.4133 0.227856 14.536 0.241943C14.5966 0.248907 14.6499 0.256323 14.6884 0.264404C14.7062 0.268175 14.7273 0.273469 14.745 0.281006C14.7525 0.284207 14.7704 0.292466 14.786 0.30835C14.7945 0.317023 14.8072 0.332722 14.8134 0.355225C14.82 0.379867 14.8164 0.405343 14.8065 0.426514V0.42749C14.7794 0.483705 14.7272 0.517046 14.6815 0.537842C14.6335 0.559653 14.5755 0.574646 14.5155 0.585693C14.3952 0.607816 14.2464 0.616527 14.0995 0.618896C13.9514 0.621273 13.8002 0.617612 13.6757 0.613037C13.5489 0.608376 13.4543 0.603294 13.4091 0.603271C10.447 0.603271 7.94459 1.07978 5.83191 3.36206C3.54361 5.8353 2.69143 9.41298 3.43542 12.6814C4.17947 15.9349 6.54359 18.8087 9.79089 19.7683C10.6906 20.0333 11.6555 20.1003 12.6346 20.1003C13.1241 20.1003 13.6161 20.084 14.1044 20.0671C14.592 20.0503 15.077 20.0339 15.5497 20.0339C15.567 20.0343 15.8998 20.0505 16.2235 20.073C16.3882 20.0845 16.5538 20.097 16.6766 20.1111C16.7373 20.1181 16.7906 20.1255 16.829 20.1335C16.8469 20.1373 16.8679 20.1426 16.8856 20.1501C16.8931 20.1533 16.911 20.1616 16.9266 20.1775C16.9352 20.1862 16.9469 20.2019 16.953 20.2244C16.9549 20.2312 16.9545 20.2381 16.955 20.2449L16.9569 20.2458V20.2527H16.9559C16.9557 20.2677 16.9533 20.2826 16.9471 20.2957L16.9423 20.2947C16.9144 20.3472 16.8662 20.3801 16.8221 20.4001C16.7741 20.422 16.7161 20.437 16.6561 20.448C16.5357 20.4702 16.3862 20.4788 16.2391 20.4812C16.0912 20.4836 15.9407 20.4789 15.8163 20.4744C15.6896 20.4697 15.5951 20.4656 15.5497 20.4656C13.2672 20.4656 10.8413 20.6564 8.55652 20.3113C4.5825 19.7106 1.51126 16.595 0.628784 12.7224C-0.324759 8.55396 1.31732 3.94042 4.995 1.62183L5.23816 1.47437C7.76102 0.00664094 10.6225 0.163818 13.4091 0.163818Z" fill="#E3B6B1" stroke="#E3B6B1" stroke-width="0.2"/>
<path d="M18.6532 0.0856934C18.8962 0.0856935 19.6293 0.0866976 20.3016 0.110107C20.6373 0.121799 20.9603 0.139561 21.2001 0.164795C21.3191 0.177329 21.4216 0.1924 21.496 0.210693C21.5324 0.219653 21.5687 0.230633 21.5975 0.24585C21.6117 0.253363 21.6292 0.264576 21.6444 0.281006C21.6605 0.298577 21.6776 0.327594 21.6776 0.36499V40.1677H25.5526C26.4894 40.1677 27.4502 40.2605 28.3632 40.1677C30.6364 39.9321 32.7573 38.4323 34.1014 36.6365C36.8835 32.9185 36.8319 27.4625 33.9579 23.8113C32.603 22.0937 30.5373 20.7071 28.3329 20.4714C27.7755 20.4124 27.2002 20.4126 26.621 20.4275C26.0444 20.4423 25.4588 20.4724 24.8915 20.4724C24.8811 20.4724 24.5441 20.4561 24.2167 20.4333C24.0521 20.4219 23.8873 20.4084 23.7645 20.3943C23.7037 20.3873 23.6497 20.3799 23.6112 20.3718C23.5933 20.368 23.5722 20.3628 23.5546 20.3552C23.547 20.352 23.53 20.3436 23.5145 20.3279C23.506 20.3192 23.4933 20.3035 23.4872 20.281C23.4806 20.2566 23.4834 20.2317 23.493 20.2107L23.494 20.2087C23.5212 20.1526 23.5733 20.1192 23.619 20.0984C23.6669 20.0766 23.7242 20.0616 23.7841 20.0505C23.9045 20.0284 24.0539 20.0197 24.201 20.0173C24.349 20.015 24.4994 20.0186 24.6239 20.0232C24.7511 20.0279 24.8463 20.033 24.8915 20.033C26.3633 20.033 27.9141 19.9504 29.4257 20.0525C30.9391 20.1547 32.4276 20.4423 33.7889 21.1863L33.8007 21.1921C37.6217 23.2833 39.248 27.5474 38.8339 31.5369C38.4196 35.5275 35.9603 39.2679 31.5858 40.3015C29.4267 40.8092 27.0455 40.6062 24.8729 40.6062H18.0927C18.0791 40.606 17.7436 40.5898 17.4178 40.5671C17.2533 40.5557 17.0884 40.5431 16.9657 40.5291C16.905 40.5221 16.8518 40.5137 16.8134 40.5056C16.7953 40.5018 16.7735 40.4967 16.7557 40.489C16.748 40.4857 16.7309 40.478 16.7157 40.4626C16.7072 40.454 16.6945 40.4383 16.6884 40.4158C16.6817 40.3911 16.6853 40.3657 16.6952 40.3445V40.3435C16.7223 40.2872 16.7744 40.254 16.8202 40.2332C16.8682 40.2113 16.9262 40.1963 16.9862 40.1853C17.1065 40.1632 17.2553 40.1545 17.4022 40.1521C17.5501 40.1497 17.7006 40.1534 17.8251 40.158C17.9522 40.1626 18.0474 40.1677 18.0927 40.1677H18.8632V0.519287C18.6592 0.519539 18.3236 0.521107 18.0194 0.514404C17.839 0.510426 17.667 0.504492 17.5399 0.493896C17.4773 0.488671 17.422 0.48191 17.3807 0.473389C17.3609 0.46928 17.3378 0.463768 17.3182 0.454834C17.3087 0.450477 17.2939 0.44255 17.2802 0.429443C17.273 0.422658 17.2646 0.412383 17.2577 0.39917L17.246 0.349365L17.2509 0.316162C17.2597 0.286303 17.2785 0.265139 17.2919 0.253662C17.3104 0.237783 17.3324 0.227181 17.3505 0.219482C17.3875 0.203753 17.4352 0.191024 17.4862 0.18042C17.5902 0.158814 17.7296 0.141556 17.8749 0.127686C18.1662 0.0998749 18.4965 0.0856934 18.6532 0.0856934Z" fill="#E3B6B1" stroke="#E3B6B1" stroke-width="0.2"/>
</svg>
