<svg width="24" height="25" viewBox="0 0 24 25" fill="none" xmlns="http://www.w3.org/2000/svg">
<g clip-path="url(#clip0_11332_513)">
<path d="M6.75 0.319336C6.94891 0.319336 7.13968 0.398354 7.28033 0.539006C7.42098 0.679658 7.5 0.870424 7.5 1.06934V3.31934H16.5V1.06934C16.5 0.870424 16.579 0.679658 16.7197 0.539006C16.8603 0.398354 17.0511 0.319336 17.25 0.319336C17.4489 0.319336 17.6397 0.398354 17.7803 0.539006C17.921 0.679658 18 0.870424 18 1.06934V3.31934H20.75C21.716 3.31934 22.5 4.10334 22.5 5.06934V21.0693C22.5 21.5335 22.3156 21.9786 21.9874 22.3068C21.6592 22.635 21.2141 22.8193 20.75 22.8193H3.25C2.78587 22.8193 2.34075 22.635 2.01256 22.3068C1.68437 21.9786 1.5 21.5335 1.5 21.0693V5.06934C1.5 4.10334 2.284 3.31934 3.25 3.31934H6V1.06934C6 0.870424 6.07902 0.679658 6.21967 0.539006C6.36032 0.398354 6.55109 0.319336 6.75 0.319336ZM21 9.81934H3V21.0693C3 21.2073 3.112 21.3193 3.25 21.3193H20.75C20.8163 21.3193 20.8799 21.293 20.9268 21.2461C20.9737 21.1992 21 21.1356 21 21.0693V9.81934ZM3.25 4.81934C3.1837 4.81934 3.12011 4.84567 3.07322 4.89256C3.02634 4.93944 3 5.00303 3 5.06934V8.31934H21V5.06934C21 5.00303 20.9737 4.93944 20.9268 4.89256C20.8799 4.84567 20.8163 4.81934 20.75 4.81934H3.25Z" fill="#888888"/>
</g>
<defs>
<clipPath id="clip0_11332_513">
<rect width="24" height="24" fill="white" transform="translate(0 0.319336)"/>
</clipPath>
</defs>
</svg>
