<svg width="24" height="25" viewBox="0 0 24 25" fill="none" xmlns="http://www.w3.org/2000/svg">
<g clip-path="url(#clip0_4115_1221)">
<path fill-rule="evenodd" clip-rule="evenodd" d="M0 12.3193C0 9.13674 1.26428 6.08449 3.51472 3.83405C5.76516 1.58362 8.8174 0.319336 12 0.319336C15.1826 0.319336 18.2348 1.58362 20.4853 3.83405C22.7357 6.08449 24 9.13674 24 12.3193C24 15.5019 22.7357 18.5542 20.4853 20.8046C18.2348 23.0551 15.1826 24.3193 12 24.3193C8.8174 24.3193 5.76516 23.0551 3.51472 20.8046C1.26428 18.5542 0 15.5019 0 12.3193ZM11.3152 17.4553L18.224 8.81854L16.976 7.82014L11.0848 15.1817L6.912 11.7049L5.888 12.9337L11.3152 17.4553Z" fill="#E3B6B1"/>
</g>
<defs>
<clipPath id="clip0_4115_1221">
<rect width="24" height="24" fill="white" transform="translate(0 0.319336)"/>
</clipPath>
</defs>
</svg>
